<?xml version="1.0" standalone="no"?>
<!DOCTYPE svg PUBLIC "-//W3C//DTD SVG 1.1//EN" "http://www.w3.org/Graphics/SVG/1.1/DTD/svg11.dtd">
<svg xmlns="http://www.w3.org/2000/svg" xmlns:xlink="http://www.w3.org/1999/xlink" width="263.25" zoomAndPan="magnify" viewBox="0 0 263.25 180.749999" height="180.75" preserveAspectRatio="xMidYMid meet" version="1.0"><defs><g/><clipPath id="67d7f4db3f"><path d="M 19.066406 0.132812 L 243.496094 0.132812 L 243.496094 29.144531 L 19.066406 29.144531 Z M 19.066406 0.132812 " clip-rule="nonzero"/></clipPath><clipPath id="7a263f9fd4"><path d="M 131.226562 0.128906 L 243.382812 29.144531 L 19.066406 29.144531 Z M 131.226562 0.128906 " clip-rule="nonzero"/></clipPath><clipPath id="6db60a6ef2"><path d="M 13.527344 32.816406 L 249.273438 32.816406 L 249.273438 39.976562 L 13.527344 39.976562 Z M 13.527344 32.816406 " clip-rule="nonzero"/></clipPath><clipPath id="8d16bf5d62"><path d="M 17.109375 32.816406 L 245.679688 32.816406 C 247.65625 32.816406 249.257812 34.417969 249.257812 36.394531 C 249.257812 38.375 247.65625 39.976562 245.679688 39.976562 L 17.109375 39.976562 C 15.132812 39.976562 13.527344 38.375 13.527344 36.394531 C 13.527344 34.417969 15.132812 32.816406 17.109375 32.816406 Z M 17.109375 32.816406 " clip-rule="nonzero"/></clipPath><clipPath id="2d4b09177c"><path d="M 13.527344 141.183594 L 249.273438 141.183594 L 249.273438 148.34375 L 13.527344 148.34375 Z M 13.527344 141.183594 " clip-rule="nonzero"/></clipPath><clipPath id="fe068833d0"><path d="M 17.109375 141.183594 L 245.679688 141.183594 C 247.65625 141.183594 249.257812 142.789062 249.257812 144.765625 C 249.257812 146.742188 247.65625 148.34375 245.679688 148.34375 L 17.109375 148.34375 C 15.132812 148.34375 13.527344 146.742188 13.527344 144.765625 C 13.527344 142.789062 15.132812 141.183594 17.109375 141.183594 Z M 17.109375 141.183594 " clip-rule="nonzero"/></clipPath><clipPath id="6166fce639"><path d="M 0 172.480469 L 262.429688 172.480469 L 262.429688 180.351562 L 0 180.351562 Z M 0 172.480469 " clip-rule="nonzero"/></clipPath><clipPath id="eed0f5bd05"><path d="M 3.9375 172.480469 L 258.476562 172.480469 C 259.519531 172.480469 260.519531 172.894531 261.257812 173.632812 C 261.996094 174.371094 262.410156 175.375 262.410156 176.417969 C 262.410156 177.460938 261.996094 178.460938 261.257812 179.199219 C 260.519531 179.9375 259.519531 180.351562 258.476562 180.351562 L 3.9375 180.351562 C 2.890625 180.351562 1.890625 179.9375 1.152344 179.199219 C 0.414062 178.460938 0 177.460938 0 176.417969 C 0 175.375 0.414062 174.371094 1.152344 173.632812 C 1.890625 172.894531 2.890625 172.480469 3.9375 172.480469 Z M 3.9375 172.480469 " clip-rule="nonzero"/></clipPath><clipPath id="3a4f560d30"><path d="M 7.027344 157.570312 L 62.136719 157.570312 L 62.136719 165.777344 L 7.027344 165.777344 Z M 7.027344 157.570312 " clip-rule="nonzero"/></clipPath><clipPath id="55f50b1dfb"><path d="M 11.128906 157.570312 L 58.011719 157.570312 C 59.097656 157.570312 60.140625 158 60.914062 158.769531 C 61.683594 159.542969 62.113281 160.585938 62.113281 161.671875 C 62.113281 162.761719 61.683594 163.804688 60.914062 164.574219 C 60.140625 165.34375 59.097656 165.777344 58.011719 165.777344 L 11.128906 165.777344 C 10.042969 165.777344 9 165.34375 8.230469 164.574219 C 7.460938 163.804688 7.027344 162.761719 7.027344 161.671875 C 7.027344 160.585938 7.460938 159.542969 8.230469 158.769531 C 9 158 10.042969 157.570312 11.128906 157.570312 Z M 11.128906 157.570312 " clip-rule="nonzero"/></clipPath><clipPath id="350d90dffb"><path d="M 199.671875 156.191406 L 254.78125 156.191406 L 254.78125 164.398438 L 199.671875 164.398438 Z M 199.671875 156.191406 " clip-rule="nonzero"/></clipPath><clipPath id="d69e228432"><path d="M 203.773438 156.191406 L 250.65625 156.191406 C 251.742188 156.191406 252.785156 156.625 253.554688 157.394531 C 254.324219 158.164062 254.757812 159.207031 254.757812 160.292969 C 254.757812 161.382812 254.324219 162.425781 253.554688 163.195312 C 252.785156 163.964844 251.742188 164.398438 250.65625 164.398438 L 203.773438 164.398438 C 202.6875 164.398438 201.644531 163.964844 200.875 163.195312 C 200.105469 162.425781 199.671875 161.382812 199.671875 160.292969 C 199.671875 159.207031 200.105469 158.164062 200.875 157.394531 C 201.644531 156.625 202.6875 156.191406 203.773438 156.191406 Z M 203.773438 156.191406 " clip-rule="nonzero"/></clipPath><clipPath id="cd4dc345e3"><path d="M 207.015625 86.578125 L 243.425781 86.578125 L 243.425781 97.820312 L 207.015625 97.820312 Z M 207.015625 86.578125 " clip-rule="nonzero"/></clipPath><clipPath id="0d9d6223e4"><path d="M 212.636719 86.578125 L 237.765625 86.578125 C 239.257812 86.578125 240.6875 87.167969 241.742188 88.222656 C 242.796875 89.277344 243.386719 90.707031 243.386719 92.199219 C 243.386719 93.691406 242.796875 95.121094 241.742188 96.171875 C 240.6875 97.226562 239.257812 97.820312 237.765625 97.820312 L 212.636719 97.820312 C 211.144531 97.820312 209.714844 97.226562 208.660156 96.171875 C 207.609375 95.121094 207.015625 93.691406 207.015625 92.199219 C 207.015625 90.707031 207.609375 89.277344 208.660156 88.222656 C 209.714844 87.167969 211.144531 86.578125 212.636719 86.578125 Z M 212.636719 86.578125 " clip-rule="nonzero"/></clipPath><clipPath id="7d40e5a3a4"><path d="M 211.367188 101.050781 L 217.199219 101.050781 L 217.199219 134.136719 L 211.367188 134.136719 Z M 211.367188 101.050781 " clip-rule="nonzero"/></clipPath><clipPath id="6f94f706d3"><path d="M 232.8125 101.050781 L 238.648438 101.050781 L 238.648438 134.136719 L 232.8125 134.136719 Z M 232.8125 101.050781 " clip-rule="nonzero"/></clipPath><clipPath id="8fb80c5f93"><path d="M 223.183594 101.050781 L 227.21875 101.050781 L 227.21875 134.136719 L 223.183594 134.136719 Z M 223.183594 101.050781 " clip-rule="nonzero"/></clipPath><clipPath id="9bf74a063f"><path d="M 208.175781 125.316406 L 242.203125 125.316406 L 242.203125 135.941406 L 208.175781 135.941406 Z M 208.175781 125.316406 " clip-rule="nonzero"/></clipPath><clipPath id="059151bd48"><path d="M 225.195312 125.316406 L 208.183594 135.941406 L 242.203125 135.941406 Z M 225.195312 125.316406 " clip-rule="nonzero"/></clipPath><clipPath id="87be72e540"><path d="M 233.191406 50.363281 L 239.027344 50.363281 L 239.027344 83.449219 L 233.191406 83.449219 Z M 233.191406 50.363281 " clip-rule="nonzero"/></clipPath><clipPath id="86494f59b8"><path d="M 211.746094 50.363281 L 217.578125 50.363281 L 217.578125 83.449219 L 211.746094 83.449219 Z M 211.746094 50.363281 " clip-rule="nonzero"/></clipPath><clipPath id="693d4ed3c1"><path d="M 223.175781 50.363281 L 227.214844 50.363281 L 227.214844 83.449219 L 223.175781 83.449219 Z M 223.175781 50.363281 " clip-rule="nonzero"/></clipPath><clipPath id="3a24a240e5"><path d="M 208.1875 48.558594 L 242.214844 48.558594 L 242.214844 59.183594 L 208.1875 59.183594 Z M 208.1875 48.558594 " clip-rule="nonzero"/></clipPath><clipPath id="a8da53bf45"><path d="M 225.199219 59.183594 L 242.210938 48.558594 L 208.1875 48.558594 Z M 225.199219 59.183594 " clip-rule="nonzero"/></clipPath><clipPath id="0422f4bc26"><path d="M 16.390625 86.578125 L 52.800781 86.578125 L 52.800781 97.820312 L 16.390625 97.820312 Z M 16.390625 86.578125 " clip-rule="nonzero"/></clipPath><clipPath id="98e7aab874"><path d="M 22.011719 86.578125 L 47.140625 86.578125 C 48.632812 86.578125 50.0625 87.167969 51.117188 88.222656 C 52.167969 89.277344 52.761719 90.707031 52.761719 92.199219 C 52.761719 93.691406 52.167969 95.121094 51.117188 96.171875 C 50.0625 97.226562 48.632812 97.820312 47.140625 97.820312 L 22.011719 97.820312 C 20.519531 97.820312 19.089844 97.226562 18.035156 96.171875 C 16.980469 95.121094 16.390625 93.691406 16.390625 92.199219 C 16.390625 90.707031 16.980469 89.277344 18.035156 88.222656 C 19.089844 87.167969 20.519531 86.578125 22.011719 86.578125 Z M 22.011719 86.578125 " clip-rule="nonzero"/></clipPath><clipPath id="99032bee3d"><path d="M 20.738281 101.050781 L 26.574219 101.050781 L 26.574219 134.136719 L 20.738281 134.136719 Z M 20.738281 101.050781 " clip-rule="nonzero"/></clipPath><clipPath id="b0327ff8c0"><path d="M 42.1875 101.050781 L 48.019531 101.050781 L 48.019531 134.136719 L 42.1875 134.136719 Z M 42.1875 101.050781 " clip-rule="nonzero"/></clipPath><clipPath id="c914da2003"><path d="M 32.558594 101.050781 L 36.59375 101.050781 L 36.59375 134.136719 L 32.558594 134.136719 Z M 32.558594 101.050781 " clip-rule="nonzero"/></clipPath><clipPath id="2370a3c7a9"><path d="M 17.550781 125.316406 L 51.578125 125.316406 L 51.578125 135.941406 L 17.550781 135.941406 Z M 17.550781 125.316406 " clip-rule="nonzero"/></clipPath><clipPath id="8b15e8f23f"><path d="M 34.570312 125.316406 L 17.558594 135.941406 L 51.578125 135.941406 Z M 34.570312 125.316406 " clip-rule="nonzero"/></clipPath><clipPath id="cea4726243"><path d="M 42.566406 50.363281 L 48.402344 50.363281 L 48.402344 83.449219 L 42.566406 83.449219 Z M 42.566406 50.363281 " clip-rule="nonzero"/></clipPath><clipPath id="0b383865c6"><path d="M 21.121094 50.363281 L 26.953125 50.363281 L 26.953125 83.449219 L 21.121094 83.449219 Z M 21.121094 50.363281 " clip-rule="nonzero"/></clipPath><clipPath id="32c9f7a04b"><path d="M 32.550781 50.363281 L 36.589844 50.363281 L 36.589844 83.449219 L 32.550781 83.449219 Z M 32.550781 50.363281 " clip-rule="nonzero"/></clipPath><clipPath id="5e5875c9ed"><path d="M 17.5625 48.558594 L 51.589844 48.558594 L 51.589844 59.183594 L 17.5625 59.183594 Z M 17.5625 48.558594 " clip-rule="nonzero"/></clipPath><clipPath id="901e7e7951"><path d="M 34.574219 59.183594 L 51.585938 48.558594 L 17.5625 48.558594 Z M 34.574219 59.183594 " clip-rule="nonzero"/></clipPath></defs><g clip-path="url(#67d7f4db3f)"><g clip-path="url(#7a263f9fd4)"><path fill="#ae8129" d="M 19.066406 0.128906 L 243.382812 0.128906 L 243.382812 29.144531 L 19.066406 29.144531 Z M 19.066406 0.128906 " fill-opacity="1" fill-rule="nonzero"/></g></g><g clip-path="url(#6db60a6ef2)"><g clip-path="url(#8d16bf5d62)"><path fill="#ae8129" d="M 13.527344 32.816406 L 249.246094 32.816406 L 249.246094 39.976562 L 13.527344 39.976562 Z M 13.527344 32.816406 " fill-opacity="1" fill-rule="nonzero"/></g></g><g clip-path="url(#2d4b09177c)"><g clip-path="url(#fe068833d0)"><path fill="#ae8129" d="M 13.527344 141.183594 L 249.246094 141.183594 L 249.246094 148.34375 L 13.527344 148.34375 Z M 13.527344 141.183594 " fill-opacity="1" fill-rule="nonzero"/></g></g><g clip-path="url(#6166fce639)"><g clip-path="url(#eed0f5bd05)"><path fill="#ae8129" d="M 0 172.480469 L 262.398438 172.480469 L 262.398438 180.351562 L 0 180.351562 Z M 0 172.480469 " fill-opacity="1" fill-rule="nonzero"/></g></g><g clip-path="url(#3a4f560d30)"><g clip-path="url(#55f50b1dfb)"><path fill="#ae8129" d="M 7.027344 157.570312 L 62.105469 157.570312 L 62.105469 165.777344 L 7.027344 165.777344 Z M 7.027344 157.570312 " fill-opacity="1" fill-rule="nonzero"/></g></g><g clip-path="url(#350d90dffb)"><g clip-path="url(#d69e228432)"><path fill="#ae8129" d="M 199.671875 156.191406 L 254.75 156.191406 L 254.75 164.398438 L 199.671875 164.398438 Z M 199.671875 156.191406 " fill-opacity="1" fill-rule="nonzero"/></g></g><g fill="#ae8129" fill-opacity="1"><g transform="translate(55.889718, 121.594876)"><g><path d="M 2.6875 -2.515625 C 3.445312 -2.566406 4.117188 -2.625 4.703125 -2.6875 C 5.296875 -2.75 5.84375 -2.804688 6.34375 -2.859375 C 6.84375 -2.921875 7.328125 -2.960938 7.796875 -2.984375 C 8.265625 -3.015625 8.765625 -3.046875 9.296875 -3.078125 C 9.441406 -6.984375 9.578125 -10.84375 9.703125 -14.65625 C 9.835938 -18.476562 9.960938 -22.132812 10.078125 -25.625 C 10.203125 -29.125 10.320312 -32.382812 10.4375 -35.40625 C 10.550781 -38.425781 10.648438 -41.097656 10.734375 -43.421875 C 10.828125 -45.742188 10.894531 -47.648438 10.9375 -49.140625 C 10.988281 -50.640625 11.015625 -51.609375 11.015625 -52.046875 C 11.015625 -53.304688 10.925781 -54.332031 10.75 -55.125 C 10.570312 -55.925781 10.296875 -56.550781 9.921875 -57 C 9.554688 -57.457031 9.09375 -57.78125 8.53125 -57.96875 C 7.976562 -58.164062 7.335938 -58.320312 6.609375 -58.4375 L 4.671875 -58.703125 L 4.671875 -61.25 C 5.492188 -61.132812 6.375 -61.019531 7.3125 -60.90625 C 8.101562 -60.8125 9.003906 -60.734375 10.015625 -60.671875 C 11.023438 -60.617188 12.078125 -60.59375 13.171875 -60.59375 C 14.171875 -60.59375 15.125 -60.648438 16.03125 -60.765625 C 16.9375 -60.890625 17.875 -61.015625 18.84375 -61.140625 C 19.8125 -61.273438 20.835938 -61.398438 21.921875 -61.515625 C 23.015625 -61.640625 24.222656 -61.703125 25.546875 -61.703125 C 29.066406 -61.703125 32.070312 -61.265625 34.5625 -60.390625 C 37.0625 -59.523438 39.101562 -58.363281 40.6875 -56.90625 C 42.269531 -55.457031 43.425781 -53.800781 44.15625 -51.9375 C 44.894531 -50.070312 45.265625 -48.15625 45.265625 -46.1875 C 45.265625 -43.488281 44.769531 -41.171875 43.78125 -39.234375 C 42.800781 -37.296875 41.597656 -35.660156 40.171875 -34.328125 C 38.753906 -32.992188 37.242188 -31.921875 35.640625 -31.109375 C 34.046875 -30.304688 32.628906 -29.710938 31.390625 -29.328125 C 33.628906 -25.304688 35.90625 -21.519531 38.21875 -17.96875 C 40.539062 -14.414062 42.820312 -11.300781 45.0625 -8.625 C 47.3125 -5.957031 49.484375 -3.851562 51.578125 -2.3125 C 53.679688 -0.769531 55.644531 0 57.46875 0 L 57.375 1.546875 C 56.257812 1.722656 55.175781 1.8125 54.125 1.8125 C 51.71875 1.75 49.40625 1.164062 47.1875 0.0625 C 44.96875 -1.03125 42.859375 -2.441406 40.859375 -4.171875 C 38.867188 -5.910156 37 -7.875 35.25 -10.0625 C 33.5 -12.25 31.894531 -14.441406 30.4375 -16.640625 C 28.988281 -18.847656 27.707031 -20.945312 26.59375 -22.9375 C 25.476562 -24.9375 24.554688 -26.640625 23.828125 -28.046875 C 23.054688 -27.992188 22.253906 -27.953125 21.421875 -27.921875 C 20.585938 -27.890625 19.703125 -27.875 18.765625 -27.875 L 16.953125 -27.875 C 16.921875 -26.988281 16.882812 -25.96875 16.84375 -24.8125 C 16.800781 -23.65625 16.753906 -22.457031 16.703125 -21.21875 C 16.660156 -19.988281 16.617188 -18.742188 16.578125 -17.484375 C 16.535156 -16.222656 16.5 -15.046875 16.46875 -13.953125 C 16.4375 -12.867188 16.40625 -11.90625 16.375 -11.0625 C 16.351562 -10.226562 16.34375 -9.609375 16.34375 -9.203125 C 16.34375 -7.941406 16.425781 -6.921875 16.59375 -6.140625 C 16.769531 -5.359375 17.035156 -4.734375 17.390625 -4.265625 C 17.742188 -3.796875 18.195312 -3.457031 18.75 -3.25 C 19.3125 -3.050781 19.972656 -2.894531 20.734375 -2.78125 L 22.640625 -2.515625 L 22.640625 0 C 21.992188 -0.0820312 21.210938 -0.1875 20.296875 -0.3125 C 19.535156 -0.363281 18.597656 -0.425781 17.484375 -0.5 C 16.367188 -0.570312 15.078125 -0.609375 13.609375 -0.609375 C 12.109375 -0.609375 10.460938 -0.566406 8.671875 -0.484375 C 6.878906 -0.398438 4.882812 -0.238281 2.6875 0 Z M 17.046875 -30.90625 L 19.546875 -30.90625 C 23.222656 -30.90625 26.265625 -31.335938 28.671875 -32.203125 C 31.078125 -33.078125 32.984375 -34.21875 34.390625 -35.625 C 35.796875 -37.03125 36.785156 -38.644531 37.359375 -40.46875 C 37.929688 -42.289062 38.21875 -44.171875 38.21875 -46.109375 C 38.21875 -47.046875 38.125 -48.003906 37.9375 -48.984375 C 37.75 -49.972656 37.425781 -50.9375 36.96875 -51.875 C 36.507812 -52.8125 35.90625 -53.695312 35.15625 -54.53125 C 34.414062 -55.375 33.507812 -56.109375 32.4375 -56.734375 C 31.363281 -57.367188 30.097656 -57.867188 28.640625 -58.234375 C 27.191406 -58.609375 25.523438 -58.796875 23.640625 -58.796875 C 22.585938 -58.796875 21.632812 -58.765625 20.78125 -58.703125 C 19.9375 -58.640625 19 -58.519531 17.96875 -58.34375 Z M 17.046875 -30.90625 "/></g></g></g><g fill="#ae8129" fill-opacity="1"><g transform="translate(105.220374, 121.594876)"><g><path d="M 40.421875 -59.28125 C 36.753906 -59.28125 33.222656 -58.675781 29.828125 -57.46875 C 26.441406 -56.257812 23.445312 -54.488281 20.84375 -52.15625 C 18.25 -49.820312 16.171875 -46.945312 14.609375 -43.53125 C 13.054688 -40.113281 12.28125 -36.1875 12.28125 -31.75 C 12.28125 -28.4375 12.691406 -25.410156 13.515625 -22.671875 C 14.335938 -19.941406 15.453125 -17.488281 16.859375 -15.3125 C 18.273438 -13.144531 19.925781 -11.253906 21.8125 -9.640625 C 23.707031 -8.023438 25.734375 -6.679688 27.890625 -5.609375 C 30.054688 -4.535156 32.289062 -3.734375 34.59375 -3.203125 C 36.894531 -2.679688 39.160156 -2.421875 41.390625 -2.421875 C 42.804688 -2.421875 44.097656 -2.460938 45.265625 -2.546875 C 46.441406 -2.640625 47.625 -2.796875 48.8125 -3.015625 C 50 -3.234375 51.238281 -3.523438 52.53125 -3.890625 C 53.820312 -4.265625 55.273438 -4.710938 56.890625 -5.234375 L 57.734375 -2.6875 C 56.171875 -1.925781 54.5 -1.296875 52.71875 -0.796875 C 50.945312 -0.296875 49.195312 0.101562 47.46875 0.40625 C 45.738281 0.71875 44.070312 0.941406 42.46875 1.078125 C 40.875 1.210938 39.457031 1.28125 38.21875 1.28125 C 35.019531 1.28125 31.953125 0.929688 29.015625 0.234375 C 26.078125 -0.453125 23.347656 -1.425781 20.828125 -2.6875 C 18.304688 -3.945312 16.007812 -5.488281 13.9375 -7.3125 C 11.863281 -9.132812 10.09375 -11.179688 8.625 -13.453125 C 7.15625 -15.722656 6.023438 -18.1875 5.234375 -20.84375 C 4.441406 -23.507812 4.046875 -26.335938 4.046875 -29.328125 C 4.046875 -32.554688 4.441406 -35.613281 5.234375 -38.5 C 6.023438 -41.394531 7.160156 -44.066406 8.640625 -46.515625 C 10.128906 -48.972656 11.9375 -51.191406 14.0625 -53.171875 C 16.195312 -55.148438 18.59375 -56.828125 21.25 -58.203125 C 23.90625 -59.585938 26.796875 -60.644531 29.921875 -61.375 C 33.046875 -62.113281 36.359375 -62.484375 39.859375 -62.484375 C 44.285156 -62.484375 48.144531 -62.226562 51.4375 -61.71875 C 54.726562 -61.207031 57.632812 -60.628906 60.15625 -59.984375 L 58.875 -45.265625 L 56.1875 -45.265625 L 56.1875 -45.96875 C 56.1875 -47.46875 56.003906 -49.003906 55.640625 -50.578125 C 55.273438 -52.148438 54.535156 -53.582031 53.421875 -54.875 C 52.304688 -56.164062 50.710938 -57.222656 48.640625 -58.046875 C 46.566406 -58.867188 43.828125 -59.28125 40.421875 -59.28125 Z M 40.421875 -59.28125 "/></g></g></g><g fill="#ae8129" fill-opacity="1"><g transform="translate(162.125443, 121.594876)"><g><path d="M 19.953125 -1.984375 C 21.710938 -1.984375 23.363281 -2.253906 24.90625 -2.796875 C 26.445312 -3.335938 27.789062 -4.117188 28.9375 -5.140625 C 30.082031 -6.171875 30.984375 -7.425781 31.640625 -8.90625 C 32.296875 -10.394531 32.625 -12.078125 32.625 -13.953125 C 32.625 -15.742188 32.207031 -17.378906 31.375 -18.859375 C 30.539062 -20.347656 29.484375 -21.722656 28.203125 -22.984375 C 26.929688 -24.242188 25.546875 -25.429688 24.046875 -26.546875 C 22.546875 -27.671875 21.117188 -28.773438 19.765625 -29.859375 C 18.472656 -30.859375 17.050781 -31.953125 15.5 -33.140625 C 13.945312 -34.328125 12.488281 -35.640625 11.125 -37.078125 C 9.757812 -38.515625 8.613281 -40.097656 7.6875 -41.828125 C 6.757812 -43.566406 6.296875 -45.492188 6.296875 -47.609375 C 6.296875 -48.660156 6.394531 -49.765625 6.59375 -50.921875 C 6.800781 -52.085938 7.160156 -53.21875 7.671875 -54.3125 C 8.191406 -55.414062 8.867188 -56.457031 9.703125 -57.4375 C 10.546875 -58.425781 11.597656 -59.296875 12.859375 -60.046875 C 14.117188 -60.796875 15.597656 -61.390625 17.296875 -61.828125 C 19.003906 -62.265625 20.988281 -62.484375 23.25 -62.484375 C 26.125 -62.484375 28.894531 -62.253906 31.5625 -61.796875 C 34.238281 -61.347656 36.546875 -60.832031 38.484375 -60.25 L 37.515625 -46.984375 L 35.015625 -46.984375 L 35.015625 -48.171875 C 35.015625 -49.285156 34.894531 -50.492188 34.65625 -51.796875 C 34.425781 -53.109375 33.910156 -54.316406 33.109375 -55.421875 C 32.316406 -56.523438 31.164062 -57.441406 29.65625 -58.171875 C 28.144531 -58.910156 26.113281 -59.28125 23.5625 -59.28125 C 22.03125 -59.28125 20.640625 -59.066406 19.390625 -58.640625 C 18.148438 -58.210938 17.085938 -57.609375 16.203125 -56.828125 C 15.328125 -56.046875 14.644531 -55.097656 14.15625 -53.984375 C 13.675781 -52.867188 13.4375 -51.625 13.4375 -50.25 C 13.4375 -48.425781 13.796875 -46.816406 14.515625 -45.421875 C 15.234375 -44.023438 16.15625 -42.769531 17.28125 -41.65625 C 18.414062 -40.539062 19.671875 -39.503906 21.046875 -38.546875 C 22.429688 -37.597656 23.769531 -36.65625 25.0625 -35.71875 C 27 -34.300781 28.851562 -32.894531 30.625 -31.5 C 32.40625 -30.113281 33.96875 -28.648438 35.3125 -27.109375 C 36.664062 -25.566406 37.742188 -23.914062 38.546875 -22.15625 C 39.359375 -20.394531 39.765625 -18.457031 39.765625 -16.34375 C 39.765625 -13.875 39.207031 -11.566406 38.09375 -9.421875 C 36.976562 -7.273438 35.488281 -5.410156 33.625 -3.828125 C 31.757812 -2.242188 29.625 -0.992188 27.21875 -0.078125 C 24.8125 0.828125 22.328125 1.28125 19.765625 1.28125 C 16.660156 1.28125 13.695312 1.03125 10.875 0.53125 C 8.0625 0.03125 5.609375 -0.539062 3.515625 -1.1875 L 4.578125 -15.15625 L 7.3125 -15.15625 L 7.3125 -13.609375 C 7.3125 -12.378906 7.457031 -11.078125 7.75 -9.703125 C 8.039062 -8.335938 8.632812 -7.082031 9.53125 -5.9375 C 10.425781 -4.800781 11.703125 -3.859375 13.359375 -3.109375 C 15.023438 -2.359375 17.222656 -1.984375 19.953125 -1.984375 Z M 19.953125 -1.984375 "/></g></g></g><g fill="#ae8129" fill-opacity="1"><g transform="translate(77.608784, 167.79943)"><g><path d="M 13.84375 -6.453125 C 13.84375 -5.671875 13.703125 -4.90625 13.421875 -4.15625 C 13.140625 -3.40625 12.722656 -2.707031 12.171875 -2.0625 C 11.617188 -1.414062 10.875 -0.898438 9.9375 -0.515625 C 9.007812 -0.128906 7.953125 0.0625 6.765625 0.0625 C 6.660156 0.0625 6.363281 0.0546875 5.875 0.046875 C 5.382812 0.046875 4.710938 0.0390625 3.859375 0.03125 C 3.003906 0.0195312 2.070312 0.015625 1.0625 0.015625 L 1.0625 -0.328125 C 2.238281 -0.429688 2.878906 -0.765625 2.984375 -1.328125 L 2.984375 -12.3125 C 2.972656 -12.507812 2.921875 -12.675781 2.828125 -12.8125 C 2.742188 -12.945312 2.597656 -13.046875 2.390625 -13.109375 C 2.179688 -13.179688 2.023438 -13.226562 1.921875 -13.25 C 1.828125 -13.269531 1.640625 -13.296875 1.359375 -13.328125 L 1.359375 -13.71875 C 2.210938 -13.71875 3.328125 -13.722656 4.703125 -13.734375 C 6.085938 -13.753906 6.960938 -13.765625 7.328125 -13.765625 C 8.035156 -13.765625 8.742188 -13.632812 9.453125 -13.375 C 10.171875 -13.125 10.867188 -12.734375 11.546875 -12.203125 C 12.234375 -11.671875 12.785156 -10.90625 13.203125 -9.90625 C 13.628906 -8.914062 13.84375 -7.765625 13.84375 -6.453125 Z M 11.46875 -6.328125 C 11.46875 -6.367188 11.46875 -6.410156 11.46875 -6.453125 C 11.46875 -7.597656 11.398438 -8.554688 11.265625 -9.328125 C 11.128906 -10.097656 10.878906 -10.785156 10.515625 -11.390625 C 10.148438 -11.992188 9.632812 -12.4375 8.96875 -12.71875 C 8.3125 -13 7.476562 -13.140625 6.46875 -13.140625 C 6.039062 -13.140625 5.585938 -13.117188 5.109375 -13.078125 C 5.109375 -12.703125 5.109375 -12.050781 5.109375 -11.125 C 5.109375 -10.320312 5.109375 -8.953125 5.109375 -7.015625 C 5.109375 -5.085938 5.109375 -3.78125 5.109375 -3.09375 C 5.109375 -2.25 5.109375 -1.710938 5.109375 -1.484375 C 5.109375 -1.203125 5.21875 -0.945312 5.4375 -0.71875 C 5.664062 -0.5 5.953125 -0.390625 6.296875 -0.390625 C 7.359375 -0.390625 8.226562 -0.5 8.90625 -0.71875 C 9.582031 -0.9375 10.101562 -1.300781 10.46875 -1.8125 C 10.84375 -2.332031 11.097656 -2.9375 11.234375 -3.625 C 11.378906 -4.320312 11.457031 -5.222656 11.46875 -6.328125 Z M 11.46875 -6.328125 "/></g></g></g><g fill="#ae8129" fill-opacity="1"><g transform="translate(91.30363, 167.79943)"><g><path d="M 11.1875 0 L 1.0625 0 L 1.0625 -0.34375 C 1.0625 -0.332031 1.265625 -0.328125 1.671875 -0.328125 C 2.390625 -0.328125 2.785156 -0.5 2.859375 -0.84375 C 2.984375 -1.632812 3.046875 -4.441406 3.046875 -9.265625 C 3.046875 -11.390625 3.019531 -12.550781 2.96875 -12.75 C 2.9375 -12.914062 2.660156 -13.054688 2.140625 -13.171875 L 1.359375 -13.328125 L 1.359375 -13.71875 C 2.890625 -13.675781 4.601562 -13.65625 6.5 -13.65625 C 8.40625 -13.65625 9.953125 -13.675781 11.140625 -13.71875 L 11.203125 -10.546875 L 10.796875 -10.546875 C 10.722656 -10.910156 10.613281 -11.265625 10.46875 -11.609375 C 10.320312 -11.953125 10.070312 -12.289062 9.71875 -12.625 C 9.375 -12.96875 8.976562 -13.140625 8.53125 -13.140625 L 5.109375 -13.140625 L 5.109375 -7.21875 L 8.328125 -7.21875 C 8.992188 -7.21875 9.359375 -7.789062 9.421875 -8.9375 L 9.9375 -8.9375 L 9.9375 -5.015625 L 9.5 -5.015625 C 9.425781 -6.148438 9.015625 -6.71875 8.265625 -6.71875 L 5.109375 -6.71875 L 5.109375 -1.5 C 5.109375 -0.800781 5.359375 -0.445312 5.859375 -0.4375 L 9.15625 -0.4375 C 9.53125 -0.445312 9.894531 -0.769531 10.25 -1.40625 C 10.613281 -2.039062 10.832031 -2.675781 10.90625 -3.3125 L 11.375 -3.3125 Z M 11.1875 0 "/></g></g></g><g fill="#ae8129" fill-opacity="1"><g transform="translate(103.079413, 167.79943)"><g><path d="M 6.5625 -14.234375 C 7.6875 -14.234375 8.640625 -13.820312 9.421875 -13 C 9.785156 -13.039062 10.078125 -13.34375 10.296875 -13.90625 L 10.59375 -13.90625 L 10.53125 -9.6875 C 10.53125 -9.6875 10.394531 -9.6875 10.125 -9.6875 C 10.070312 -10.1875 10.007812 -10.664062 9.9375 -11.125 C 9.863281 -11.582031 9.707031 -11.976562 9.46875 -12.3125 C 8.78125 -13.320312 7.796875 -13.828125 6.515625 -13.828125 C 5.835938 -13.828125 5.257812 -13.5625 4.78125 -13.03125 C 4.300781 -12.5 4.0625 -11.945312 4.0625 -11.375 C 4.0625 -10.769531 4.347656 -10.195312 4.921875 -9.65625 C 5.503906 -9.125 6.273438 -8.679688 7.234375 -8.328125 C 8.554688 -7.835938 9.617188 -7.207031 10.421875 -6.4375 C 11.234375 -5.664062 11.640625 -4.800781 11.640625 -3.84375 C 11.640625 -2.601562 11.234375 -1.597656 10.421875 -0.828125 C 9.609375 -0.0546875 8.253906 0.328125 6.359375 0.328125 C 5.953125 0.328125 5.5625 0.28125 5.1875 0.1875 C 4.8125 0.101562 4.503906 0 4.265625 -0.125 C 4.023438 -0.257812 3.789062 -0.394531 3.5625 -0.53125 C 3.34375 -0.664062 3.179688 -0.78125 3.078125 -0.875 C 2.785156 -0.738281 2.515625 -0.441406 2.265625 0.015625 L 1.8125 0.015625 L 1.859375 -3.953125 L 2.296875 -3.953125 C 2.535156 -2.753906 2.957031 -1.828125 3.5625 -1.171875 C 4.164062 -0.523438 5.070312 -0.203125 6.28125 -0.203125 C 8.3125 -0.203125 9.328125 -1.179688 9.328125 -3.140625 C 9.328125 -4.421875 8.253906 -5.4375 6.109375 -6.1875 C 4.941406 -6.59375 4.023438 -7.171875 3.359375 -7.921875 C 2.691406 -8.671875 2.359375 -9.46875 2.359375 -10.3125 C 2.335938 -12.925781 3.738281 -14.234375 6.5625 -14.234375 Z M 6.5625 -14.234375 "/></g></g></g><g fill="#ae8129" fill-opacity="1"><g transform="translate(114.942426, 167.79943)"><g><path d="M 13.84375 -6.453125 C 13.84375 -5.671875 13.703125 -4.90625 13.421875 -4.15625 C 13.140625 -3.40625 12.722656 -2.707031 12.171875 -2.0625 C 11.617188 -1.414062 10.875 -0.898438 9.9375 -0.515625 C 9.007812 -0.128906 7.953125 0.0625 6.765625 0.0625 C 6.660156 0.0625 6.363281 0.0546875 5.875 0.046875 C 5.382812 0.046875 4.710938 0.0390625 3.859375 0.03125 C 3.003906 0.0195312 2.070312 0.015625 1.0625 0.015625 L 1.0625 -0.328125 C 2.238281 -0.429688 2.878906 -0.765625 2.984375 -1.328125 L 2.984375 -12.3125 C 2.972656 -12.507812 2.921875 -12.675781 2.828125 -12.8125 C 2.742188 -12.945312 2.597656 -13.046875 2.390625 -13.109375 C 2.179688 -13.179688 2.023438 -13.226562 1.921875 -13.25 C 1.828125 -13.269531 1.640625 -13.296875 1.359375 -13.328125 L 1.359375 -13.71875 C 2.210938 -13.71875 3.328125 -13.722656 4.703125 -13.734375 C 6.085938 -13.753906 6.960938 -13.765625 7.328125 -13.765625 C 8.035156 -13.765625 8.742188 -13.632812 9.453125 -13.375 C 10.171875 -13.125 10.867188 -12.734375 11.546875 -12.203125 C 12.234375 -11.671875 12.785156 -10.90625 13.203125 -9.90625 C 13.628906 -8.914062 13.84375 -7.765625 13.84375 -6.453125 Z M 11.46875 -6.328125 C 11.46875 -6.367188 11.46875 -6.410156 11.46875 -6.453125 C 11.46875 -7.597656 11.398438 -8.554688 11.265625 -9.328125 C 11.128906 -10.097656 10.878906 -10.785156 10.515625 -11.390625 C 10.148438 -11.992188 9.632812 -12.4375 8.96875 -12.71875 C 8.3125 -13 7.476562 -13.140625 6.46875 -13.140625 C 6.039062 -13.140625 5.585938 -13.117188 5.109375 -13.078125 C 5.109375 -12.703125 5.109375 -12.050781 5.109375 -11.125 C 5.109375 -10.320312 5.109375 -8.953125 5.109375 -7.015625 C 5.109375 -5.085938 5.109375 -3.78125 5.109375 -3.09375 C 5.109375 -2.25 5.109375 -1.710938 5.109375 -1.484375 C 5.109375 -1.203125 5.21875 -0.945312 5.4375 -0.71875 C 5.664062 -0.5 5.953125 -0.390625 6.296875 -0.390625 C 7.359375 -0.390625 8.226562 -0.5 8.90625 -0.71875 C 9.582031 -0.9375 10.101562 -1.300781 10.46875 -1.8125 C 10.84375 -2.332031 11.097656 -2.9375 11.234375 -3.625 C 11.378906 -4.320312 11.457031 -5.222656 11.46875 -6.328125 Z M 11.46875 -6.328125 "/></g></g></g><g fill="#ae8129" fill-opacity="1"><g transform="translate(128.637272, 167.79943)"><g><path d="M 11.1875 0 L 1.0625 0 L 1.0625 -0.34375 C 1.0625 -0.332031 1.265625 -0.328125 1.671875 -0.328125 C 2.390625 -0.328125 2.785156 -0.5 2.859375 -0.84375 C 2.984375 -1.632812 3.046875 -4.441406 3.046875 -9.265625 C 3.046875 -11.390625 3.019531 -12.550781 2.96875 -12.75 C 2.9375 -12.914062 2.660156 -13.054688 2.140625 -13.171875 L 1.359375 -13.328125 L 1.359375 -13.71875 C 2.890625 -13.675781 4.601562 -13.65625 6.5 -13.65625 C 8.40625 -13.65625 9.953125 -13.675781 11.140625 -13.71875 L 11.203125 -10.546875 L 10.796875 -10.546875 C 10.722656 -10.910156 10.613281 -11.265625 10.46875 -11.609375 C 10.320312 -11.953125 10.070312 -12.289062 9.71875 -12.625 C 9.375 -12.96875 8.976562 -13.140625 8.53125 -13.140625 L 5.109375 -13.140625 L 5.109375 -7.21875 L 8.328125 -7.21875 C 8.992188 -7.21875 9.359375 -7.789062 9.421875 -8.9375 L 9.9375 -8.9375 L 9.9375 -5.015625 L 9.5 -5.015625 C 9.425781 -6.148438 9.015625 -6.71875 8.265625 -6.71875 L 5.109375 -6.71875 L 5.109375 -1.5 C 5.109375 -0.800781 5.359375 -0.445312 5.859375 -0.4375 L 9.15625 -0.4375 C 9.53125 -0.445312 9.894531 -0.769531 10.25 -1.40625 C 10.613281 -2.039062 10.832031 -2.675781 10.90625 -3.3125 L 11.375 -3.3125 Z M 11.1875 0 "/></g></g></g><g fill="#ae8129" fill-opacity="1"><g transform="translate(143.631334, 163.931323)"><g><path d="M 2.359375 -0.546875 C 2.359375 -0.546875 3.347656 -0.625 5.328125 -0.78125 L 5.328125 -8.046875 L 2.140625 -6.953125 L 1.96875 -7.765625 L 7.328125 -9.328125 L 7.328125 -0.78125 C 7.515625 -0.707031 8.019531 -0.65625 8.84375 -0.625 C 9.675781 -0.601562 10.1875 -0.578125 10.375 -0.546875 L 10.375 -0.015625 C 9.507812 -0.078125 8.34375 -0.109375 6.875 -0.109375 C 4.800781 -0.109375 3.316406 -0.0546875 2.421875 0.046875 Z M 2.359375 -0.546875 "/></g></g></g><g fill="#ae8129" fill-opacity="1"><g transform="translate(153.858783, 163.931323)"><g><path d="M 7.984375 -4.203125 C 7.984375 -4.742188 7.972656 -5.160156 7.953125 -5.453125 C 7.941406 -5.753906 7.882812 -6.148438 7.78125 -6.640625 C 7.675781 -7.128906 7.535156 -7.503906 7.359375 -7.765625 C 7.191406 -8.035156 6.921875 -8.269531 6.546875 -8.46875 C 6.179688 -8.675781 5.742188 -8.78125 5.234375 -8.78125 C 4.390625 -8.78125 3.765625 -8.453125 3.359375 -7.796875 C 2.960938 -7.148438 2.765625 -6.070312 2.765625 -4.5625 C 2.765625 -3.4375 2.960938 -2.570312 3.359375 -1.96875 C 3.753906 -1.363281 4.300781 -1.0625 5 -1.0625 C 5.78125 -1.0625 6.472656 -1.34375 7.078125 -1.90625 C 7.679688 -2.476562 7.984375 -3.242188 7.984375 -4.203125 Z M 4.859375 -0.609375 C 3.796875 -0.609375 2.832031 -0.960938 1.96875 -1.671875 C 1.101562 -2.390625 0.671875 -3.359375 0.671875 -4.578125 C 0.671875 -6.003906 1.085938 -7.144531 1.921875 -8 C 2.765625 -8.851562 3.898438 -9.28125 5.328125 -9.28125 C 5.878906 -9.28125 6.421875 -9.1875 6.953125 -9 C 7.492188 -8.8125 8.019531 -8.515625 8.53125 -8.109375 C 9.050781 -7.703125 9.46875 -7.117188 9.78125 -6.359375 C 10.09375 -5.609375 10.25 -4.71875 10.25 -3.6875 C 10.25 -1.164062 9.578125 0.941406 8.234375 2.640625 C 6.898438 4.335938 5.097656 5.1875 2.828125 5.1875 C 2.160156 5.1875 1.46875 4.9375 0.75 4.4375 C 0.03125 3.9375 -0.515625 3.378906 -0.890625 2.765625 L -0.375 2.1875 C -0.0195312 2.78125 0.503906 3.304688 1.203125 3.765625 C 1.898438 4.234375 2.601562 4.46875 3.3125 4.46875 C 4.082031 4.46875 4.757812 4.320312 5.34375 4.03125 C 5.925781 3.738281 6.382812 3.390625 6.71875 2.984375 C 7.050781 2.578125 7.320312 2.039062 7.53125 1.375 C 7.738281 0.707031 7.890625 0.101562 7.984375 -0.4375 C 8.085938 -0.988281 8.164062 -1.648438 8.21875 -2.421875 C 7.894531 -1.953125 7.382812 -1.53125 6.6875 -1.15625 C 5.988281 -0.789062 5.378906 -0.609375 4.859375 -0.609375 Z M 4.859375 -0.609375 "/></g></g></g><g fill="#ae8129" fill-opacity="1"><g transform="translate(164.086231, 163.931323)"><g><path d="M 7.984375 -4.203125 C 7.984375 -4.742188 7.972656 -5.160156 7.953125 -5.453125 C 7.941406 -5.753906 7.882812 -6.148438 7.78125 -6.640625 C 7.675781 -7.128906 7.535156 -7.503906 7.359375 -7.765625 C 7.191406 -8.035156 6.921875 -8.269531 6.546875 -8.46875 C 6.179688 -8.675781 5.742188 -8.78125 5.234375 -8.78125 C 4.390625 -8.78125 3.765625 -8.453125 3.359375 -7.796875 C 2.960938 -7.148438 2.765625 -6.070312 2.765625 -4.5625 C 2.765625 -3.4375 2.960938 -2.570312 3.359375 -1.96875 C 3.753906 -1.363281 4.300781 -1.0625 5 -1.0625 C 5.78125 -1.0625 6.472656 -1.34375 7.078125 -1.90625 C 7.679688 -2.476562 7.984375 -3.242188 7.984375 -4.203125 Z M 4.859375 -0.609375 C 3.796875 -0.609375 2.832031 -0.960938 1.96875 -1.671875 C 1.101562 -2.390625 0.671875 -3.359375 0.671875 -4.578125 C 0.671875 -6.003906 1.085938 -7.144531 1.921875 -8 C 2.765625 -8.851562 3.898438 -9.28125 5.328125 -9.28125 C 5.878906 -9.28125 6.421875 -9.1875 6.953125 -9 C 7.492188 -8.8125 8.019531 -8.515625 8.53125 -8.109375 C 9.050781 -7.703125 9.46875 -7.117188 9.78125 -6.359375 C 10.09375 -5.609375 10.25 -4.71875 10.25 -3.6875 C 10.25 -1.164062 9.578125 0.941406 8.234375 2.640625 C 6.898438 4.335938 5.097656 5.1875 2.828125 5.1875 C 2.160156 5.1875 1.46875 4.9375 0.75 4.4375 C 0.03125 3.9375 -0.515625 3.378906 -0.890625 2.765625 L -0.375 2.1875 C -0.0195312 2.78125 0.503906 3.304688 1.203125 3.765625 C 1.898438 4.234375 2.601562 4.46875 3.3125 4.46875 C 4.082031 4.46875 4.757812 4.320312 5.34375 4.03125 C 5.925781 3.738281 6.382812 3.390625 6.71875 2.984375 C 7.050781 2.578125 7.320312 2.039062 7.53125 1.375 C 7.738281 0.707031 7.890625 0.101562 7.984375 -0.4375 C 8.085938 -0.988281 8.164062 -1.648438 8.21875 -2.421875 C 7.894531 -1.953125 7.382812 -1.53125 6.6875 -1.15625 C 5.988281 -0.789062 5.378906 -0.609375 4.859375 -0.609375 Z M 4.859375 -0.609375 "/></g></g></g><g fill="#ae8129" fill-opacity="1"><g transform="translate(174.31368, 163.931323)"><g><path d="M 2.359375 -0.546875 C 2.359375 -0.546875 3.347656 -0.625 5.328125 -0.78125 L 5.328125 -8.046875 L 2.140625 -6.953125 L 1.96875 -7.765625 L 7.328125 -9.328125 L 7.328125 -0.78125 C 7.515625 -0.707031 8.019531 -0.65625 8.84375 -0.625 C 9.675781 -0.601562 10.1875 -0.578125 10.375 -0.546875 L 10.375 -0.015625 C 9.507812 -0.078125 8.34375 -0.109375 6.875 -0.109375 C 4.800781 -0.109375 3.316406 -0.0546875 2.421875 0.046875 Z M 2.359375 -0.546875 "/></g></g></g><g clip-path="url(#cd4dc345e3)"><g clip-path="url(#0d9d6223e4)"><path fill="#ae8129" d="M 207.015625 86.578125 L 243.382812 86.578125 L 243.382812 97.820312 L 207.015625 97.820312 Z M 207.015625 86.578125 " fill-opacity="1" fill-rule="nonzero"/></g></g><g clip-path="url(#7d40e5a3a4)"><path fill="#ae8129" d="M 211.367188 101.050781 L 217.199219 101.050781 L 217.199219 134.136719 L 211.367188 134.136719 Z M 211.367188 101.050781 " fill-opacity="1" fill-rule="nonzero"/></g><g clip-path="url(#6f94f706d3)"><path fill="#ae8129" d="M 232.8125 101.050781 L 238.648438 101.050781 L 238.648438 134.136719 L 232.8125 134.136719 Z M 232.8125 101.050781 " fill-opacity="1" fill-rule="nonzero"/></g><g clip-path="url(#8fb80c5f93)"><path fill="#ae8129" d="M 223.183594 101.050781 L 227.21875 101.050781 L 227.21875 134.132812 L 223.183594 134.132812 Z M 223.183594 101.050781 " fill-opacity="1" fill-rule="nonzero"/></g><g clip-path="url(#9bf74a063f)"><g clip-path="url(#059151bd48)"><path fill="#ae8129" d="M 242.203125 135.941406 L 208.175781 135.941406 L 208.175781 125.316406 L 242.203125 125.316406 Z M 242.203125 135.941406 " fill-opacity="1" fill-rule="nonzero"/></g></g><g clip-path="url(#87be72e540)"><path fill="#ae8129" d="M 239.027344 83.449219 L 233.191406 83.449219 L 233.191406 50.363281 L 239.027344 50.363281 Z M 239.027344 83.449219 " fill-opacity="1" fill-rule="nonzero"/></g><g clip-path="url(#86494f59b8)"><path fill="#ae8129" d="M 217.578125 83.449219 L 211.746094 83.449219 L 211.746094 50.363281 L 217.578125 50.363281 Z M 217.578125 83.449219 " fill-opacity="1" fill-rule="nonzero"/></g><g clip-path="url(#693d4ed3c1)"><path fill="#ae8129" d="M 227.214844 83.449219 L 223.175781 83.449219 L 223.175781 50.371094 L 227.214844 50.371094 Z M 227.214844 83.449219 " fill-opacity="1" fill-rule="nonzero"/></g><g clip-path="url(#3a24a240e5)"><g clip-path="url(#a8da53bf45)"><path fill="#ae8129" d="M 208.1875 48.558594 L 242.214844 48.558594 L 242.214844 59.183594 L 208.1875 59.183594 Z M 208.1875 48.558594 " fill-opacity="1" fill-rule="nonzero"/></g></g><g clip-path="url(#0422f4bc26)"><g clip-path="url(#98e7aab874)"><path fill="#ae8129" d="M 16.390625 86.578125 L 52.757812 86.578125 L 52.757812 97.820312 L 16.390625 97.820312 Z M 16.390625 86.578125 " fill-opacity="1" fill-rule="nonzero"/></g></g><g clip-path="url(#99032bee3d)"><path fill="#ae8129" d="M 20.738281 101.050781 L 26.574219 101.050781 L 26.574219 134.136719 L 20.738281 134.136719 Z M 20.738281 101.050781 " fill-opacity="1" fill-rule="nonzero"/></g><g clip-path="url(#b0327ff8c0)"><path fill="#ae8129" d="M 42.1875 101.050781 L 48.019531 101.050781 L 48.019531 134.136719 L 42.1875 134.136719 Z M 42.1875 101.050781 " fill-opacity="1" fill-rule="nonzero"/></g><g clip-path="url(#c914da2003)"><path fill="#ae8129" d="M 32.558594 101.050781 L 36.59375 101.050781 L 36.59375 134.132812 L 32.558594 134.132812 Z M 32.558594 101.050781 " fill-opacity="1" fill-rule="nonzero"/></g><g clip-path="url(#2370a3c7a9)"><g clip-path="url(#8b15e8f23f)"><path fill="#ae8129" d="M 51.578125 135.941406 L 17.550781 135.941406 L 17.550781 125.316406 L 51.578125 125.316406 Z M 51.578125 135.941406 " fill-opacity="1" fill-rule="nonzero"/></g></g><g clip-path="url(#cea4726243)"><path fill="#ae8129" d="M 48.402344 83.449219 L 42.566406 83.449219 L 42.566406 50.363281 L 48.402344 50.363281 Z M 48.402344 83.449219 " fill-opacity="1" fill-rule="nonzero"/></g><g clip-path="url(#0b383865c6)"><path fill="#ae8129" d="M 26.953125 83.449219 L 21.121094 83.449219 L 21.121094 50.363281 L 26.953125 50.363281 Z M 26.953125 83.449219 " fill-opacity="1" fill-rule="nonzero"/></g><g clip-path="url(#32c9f7a04b)"><path fill="#ae8129" d="M 36.589844 83.449219 L 32.550781 83.449219 L 32.550781 50.371094 L 36.589844 50.371094 Z M 36.589844 83.449219 " fill-opacity="1" fill-rule="nonzero"/></g><g clip-path="url(#5e5875c9ed)"><g clip-path="url(#901e7e7951)"><path fill="#ae8129" d="M 17.5625 48.558594 L 51.589844 48.558594 L 51.589844 59.183594 L 17.5625 59.183594 Z M 17.5625 48.558594 " fill-opacity="1" fill-rule="nonzero"/></g></g></svg>